<?xml version="1.0" encoding="UTF-8"?>
<svg version="1.1" xmlns="http://www.w3.org/2000/svg" width="32" height="32">
<path d="M0 0 C7.92 0 15.84 0 24 0 C24 5.28 24 10.56 24 16 C16.08 16 8.16 16 0 16 C0 10.72 0 5.44 0 0 Z M2 2 C2 5.96 2 9.92 2 14 C8.6 14 15.2 14 22 14 C22 10.04 22 6.08 22 2 C15.4 2 8.8 2 2 2 Z " fill="#FFFFFF" transform="translate(4,7)"/>
<path d="M0 0 C3.96 0 7.92 0 12 0 C12 0.66 12 1.32 12 2 C8.04 2 4.08 2 0 2 C0 1.34 0 0.68 0 0 Z " fill="#FFFFFF" transform="translate(10,24)"/>
</svg>
